<svg xmlns="http://www.w3.org/2000/svg" viewBox="0 0 64 64">
  <!-- Layer 1 (back): Red oval from official Bilbao logo -->
  <svg x="7" y="0" width="50" height="64" viewBox="260 419 148 198">
    <ellipse transform="matrix(0.9482759,0,0,0.9801324,-171.47136,10.71208)" cx="532.97931" cy="518.04541" rx="77.572899" ry="100.97852" fill="#fa392a"/>
  </svg>

  <!-- Layer 2 (middle): Oscillating staff lines + treble clef -->
  <g>
    <!-- 5 oscillating staff lines - dark gray, shortened 15% each side -->
    <path d="M 6,20 Q 22,16 35,20 Q 48,24 58,20" stroke="#333" stroke-width="1.2" fill="none"/>
    <path d="M 6,27 Q 22,23 35,27 Q 48,31 58,27" stroke="#333" stroke-width="1.2" fill="none"/>
    <path d="M 6,34 Q 22,30 35,34 Q 48,38 58,34" stroke="#333" stroke-width="1.2" fill="none"/>
    <path d="M 6,41 Q 22,37 35,41 Q 48,45 58,41" stroke="#333" stroke-width="1.2" fill="none"/>
    <path d="M 6,48 Q 22,44 35,48 Q 48,52 58,48" stroke="#333" stroke-width="1.2" fill="none"/>

    <!-- Treble clef overlapping ~50% with oval - black -->
    <g transform="translate(4, 4) scale(0.45)">
      <path fill="#000000" d="M11.35,45.61q3.72-4.22,7.69-8a45.71,45.71,0,0,1-2.19-12c-.23-7.24.88-14.93,5-21C23,2.79,25-.25,27.17,0,29,.24,30,2.83,30.72,4.32c4.92,10,5.93,20.54.25,31.93a46,46,0,0,1-7.84,10.8l2.38,12.12a8.74,8.74,0,0,1,.87-.14,14.2,14.2,0,0,1,8.56,1.41c5.6,3,9.08,10.57,8.52,16.83-.5,5.5-3,9.3-7.15,12.63a23.92,23.92,0,0,1-4.24,2.78l2.87,14.62a28.07,28.07,0,0,1,.12,3.74c-.35,7.71-6.35,12.16-13.78,11.82-5.72-.36-11.67-4.9-11.7-10.64-.06-11.13,15-10.6,13.9-.42-.32,3-2.51,5.65-7.21,5.82,3.79,6.28,15.51,1.79,16.31-6.44a17.52,17.52,0,0,0-.69-6.24L29.72,93.65a17.7,17.7,0,0,1-3.07.67A23.71,23.71,0,0,1,8.5,88.66a26,26,0,0,1-8-24.34C2,56.69,6.39,51.26,11.35,45.61Zm9.81-9.53C19.09,28.55,19.4,19,24.73,12.76S35.94,15,28.18,27.42a48.8,48.8,0,0,1-7,8.66Zm0,13c-.67.67-1.36,1.34-2.06,2-4,3.85-8,7.52-11,13a20.65,20.65,0,0,0-1.5,17.23c2.4,7.49,14,12.21,22.65,9.94L24.72,67.63a9.82,9.82,0,0,0-7.09,8,8.7,8.7,0,0,0,3.08,7.81,16.74,16.74,0,0,0,1.81,1.36c1.24.82.63,1.41-.53,1.06-3.87-1.3-6.19-3.44-7.43-6.17-3.67-8.08.83-17.08,8.66-19.92L21.16,49.07ZM31.63,90.43,27.09,67.24a9,9,0,0,1,4.53,1,12,12,0,0,1,6.62,8.23c1.2,5.57-1.7,11.72-6.49,13.94l-.12.05Z"/>
    </g>
  </g>

  <!-- Layer 3 (front): White B letter from official Bilbao logo -->
  <svg x="7" y="0" width="50" height="64" viewBox="260 419 148 198">
    <path d="M 354.59263,519.63183 C 386.51957,524.45836 381.05922,569.91747 346.17857,569.8758 L 300.74263,570.1162 L 300.98303,475.8787 L 347.14017,476.11911 C 364.50019,474.41488 386.66161,506.0036 354.59263,519.63183 z" fill="#ffffff"/>
    <path d="M 324.54241,530.20951 L 324.78281,549.92245 L 342.09173,549.68205 C 352.58204,544.99626 352.85953,534.27894 341.61093,529.96911 L 324.54241,530.20951 z" fill="#fa392a"/>
    <path d="M 324.78281,494.38964 L 324.54241,512.66018 L 338.00491,512.41978 C 348.93052,509.57118 350.36121,498.31803 338.48571,494.38964 L 324.78281,494.38964 z" fill="#fa392a"/>
  </svg>
</svg>
